<svg width="512" height="512" viewBox="0 0 512 512" fill="none" xmlns="http://www.w3.org/2000/svg">
  <rect width="512" height="512" rx="120" fill="#1E3A8A"/>
  <path d="M360 120V320M360 320C360 353.137 333.137 380 300 380C266.863 380 240 353.137 240 320C240 286.863 266.863 260 300 260C315.688 260 329.866 265.996 340.511 275.834L340 180L180 220V360M180 360C180 393.137 153.137 420 120 420C86.8629 420 60 393.137 60 360C60 326.863 86.8629 300 120 300C135.688 300 149.866 305.996 160.511 315.834L160 120L360 120Z" stroke="white" stroke-width="40" stroke-linecap="round" stroke-linejoin="round"/>
</svg>
